<svg xmlns="http://www.w3.org/2000/svg" xmlns:xlink="http://www.w3.org/1999/xlink" version="1.2" baseProfile="tiny" viewBox="0 0 100 187.81064275556525">
	<defs id="SvgjsDefs8362">
		<linearGradient id="SvgjsLinearGradient8367"><stop id="SvgjsStop8368" stop-color="#006838" offset="0"></stop><stop id="SvgjsStop8369" stop-color="#96cf24" offset="1"></stop></linearGradient></defs><g id="SvgjsG8363" featurekey="symbolFeature-0" transform="matrix(2.2301330038895237,0,0,2.2301330038895237,-70.55694906598889,-11.601151137592463)" fill="url(#SvgjsLinearGradient8367)"><path xmlns="http://www.w3.org/2000/svg" d="M49.256,13.872l0.011-2.879h1.792c0.736,0,1.333-0.597,1.333-1.333l0,0c0-0.737-0.597-1.334-1.333-1.334h-1.792V6.535  c0-0.736-0.597-1.333-1.334-1.333l0,0c-0.736,0-1.333,0.597-1.333,1.333v1.791h-1.791c-0.736,0-1.334,0.597-1.334,1.334l0,0  c0,0.736,0.598,1.333,1.334,1.333H46.6v2.879"></path><path xmlns="http://www.w3.org/2000/svg" d="M49.246,15.118h4.749c0.863,0,3.817,0,2.626,2.421l0,0l-1.834,3.64l0,0c-0.304,0.475-0.35,0.781-0.781,0.781h-12.25  c-0.432,0-0.478-0.306-0.781-0.781l0,0l-1.834-3.64l0,0c-1.078-2.421,1.763-2.421,2.626-2.421h4.749H49.246z"></path><path xmlns="http://www.w3.org/2000/svg" d="M57.494,24.43c0,0.506-0.41,0.917-0.916,0.917H39.184c-0.506,0-0.918-0.411-0.918-0.917l0,0  c0-0.506,0.412-0.917,0.918-0.917h17.395C57.084,23.513,57.494,23.923,57.494,24.43L57.494,24.43z"></path><path xmlns="http://www.w3.org/2000/svg" d="M64.123,88.417c0,0.553-0.447,1-1,1H32.638c-0.552,0-1-0.447-1-1l0,0c0-0.553,0.448-1,1-1h30.485  C63.676,87.417,64.123,87.864,64.123,88.417L64.123,88.417z"></path><path xmlns="http://www.w3.org/2000/svg" d="M35.286,84.945c-0.846,0-1.529-0.686-1.529-1.529l0,0l2.235-8.168c0,0,0.343-0.703,0.677-0.936c0.308-0.215,1.042-1,1.042-1  s5.674-6.912,5.92-44.729v-0.685l0,0c0-0.543,0.44-0.983,0.983-0.983l6.533,0c0.543,0,0.984,0.44,0.984,0.983l0,0v0.685  c0.246,37.817,5.92,44.728,5.92,44.728s0.734,0.785,1.041,1c0.334,0.233,0.678,0.936,0.678,0.936l2.234,8.168l0,0  c0,0.845-0.684,1.529-1.529,1.529H35.286z"></path></g></svg>