<svg xmlns="http://www.w3.org/2000/svg" viewBox="-5 0 374.59542919765744 104.74590482442646" class="css-1j8o68f"><defs id="SvgjsDefs2660"><linearGradient id="SvgjsLinearGradient2666"><stop id="SvgjsStop2666" stop-color="#006838" offset="0"></stop><stop id="SvgjsStop2667" stop-color="#96cf24" offset="1"></stop></linearGradient></defs><g id="SvgjsG2661" featurekey="symbolFeature-0" transform="matrix(1.2437915974508975,0,0,1.2437915974508975,-44.35107916747161,-6.470203472406989)" fill="url(#SvgjsLinearGradient2666)"><path xmlns="http://www.w3.org/2000/svg" d="M49.256,13.872l0.011-2.879h1.792c0.736,0,1.333-0.597,1.333-1.333l0,0c0-0.737-0.597-1.334-1.333-1.334h-1.792V6.535  c0-0.736-0.597-1.333-1.334-1.333l0,0c-0.736,0-1.333,0.597-1.333,1.333v1.791h-1.791c-0.736,0-1.334,0.597-1.334,1.334l0,0  c0,0.736,0.598,1.333,1.334,1.333H46.6v2.879"></path><path xmlns="http://www.w3.org/2000/svg" d="M49.246,15.118h4.749c0.863,0,3.817,0,2.626,2.421l0,0l-1.834,3.64l0,0c-0.304,0.475-0.35,0.781-0.781,0.781h-12.25  c-0.432,0-0.478-0.306-0.781-0.781l0,0l-1.834-3.64l0,0c-1.078-2.421,1.763-2.421,2.626-2.421h4.749H49.246z"></path><path xmlns="http://www.w3.org/2000/svg" d="M57.494,24.43c0,0.506-0.41,0.917-0.916,0.917H39.184c-0.506,0-0.918-0.411-0.918-0.917l0,0  c0-0.506,0.412-0.917,0.918-0.917h17.395C57.084,23.513,57.494,23.923,57.494,24.43L57.494,24.43z"></path><path xmlns="http://www.w3.org/2000/svg" d="M64.123,88.417c0,0.553-0.447,1-1,1H32.638c-0.552,0-1-0.447-1-1l0,0c0-0.553,0.448-1,1-1h30.485  C63.676,87.417,64.123,87.864,64.123,88.417L64.123,88.417z"></path><path xmlns="http://www.w3.org/2000/svg" d="M35.286,84.945c-0.846,0-1.529-0.686-1.529-1.529l0,0l2.235-8.168c0,0,0.343-0.703,0.677-0.936c0.308-0.215,1.042-1,1.042-1  s5.674-6.912,5.92-44.729v-0.685l0,0c0-0.543,0.44-0.983,0.983-0.983l6.533,0c0.543,0,0.984,0.44,0.984,0.983l0,0v0.685  c0.246,37.817,5.92,44.728,5.92,44.728s0.734,0.785,1.041,1c0.334,0.233,0.678,0.936,0.678,0.936l2.234,8.168l0,0  c0,0.845-0.684,1.529-1.529,1.529H35.286z"></path></g><g id="SvgjsG2662" featurekey="nameFeature-0" transform="matrix(0.8237425688475538,0,0,0.8237425688475538,59.6705019119251,29.25681545357306)" fill="#FFFFFF"><path d="M34.16 12.2 c-1.64 0.2 -3.04 0.64 -3.04 2.08 l0 23.44 c0 1.44 1.4 1.88 3.04 2.08 l0 0.2 l-10.16 0 l0 -0.2 c1.64 -0.2 3.04 -0.64 3.04 -2.08 l0 -23.64 l-11.16 26.36 l-11.44 -22.84 l0 15.32 c0 5.44 1.4 6.68 3.04 6.88 l0 0.2 l-6.88 0 l0 -0.2 c1.64 -0.2 3.04 -0.64 3.04 -6.08 l0 -17.72 c-0.76 -1.52 -1.52 -2.72 -3.24 -4 l5.76 0 l11.32 22.6 l9.56 -22.6 l7.12 0 l0 0.2 z M49.8 20.6 l6.16 0 l0 0.16 c-1.28 0.48 -2.24 1.16 -3.72 4.68 l-7.04 16.72 c-1.24 2.92 -2.44 5.84 -6.56 5.84 l-1.52 -1.76 c3.32 0 6 -1.2 7.32 -4.28 l0.6 -1.4 l-7.8 -17.24 l-1.48 -2.72 l8.2 0 l0 0.16 c-2 0.24 -3.6 1.2 -2.08 4.64 l4.92 11 l4.68 -11 c1.44 -3.44 -0.24 -4.16 -1.68 -4.64 l0 -0.16 z M92.32 35.56 c-1.72 2.72 -5.24 5 -10.44 5 c-8.44 0 -15.32 -5.96 -15.32 -14.56 c0 -9.24 7.96 -14.56 16.2 -14.56 c5.08 0 8.32 1.96 10.16 4.2 l-5.08 7.04 l-0.12 -0.04 c2.16 -5.28 -0.8 -10.36 -6.92 -10.36 c-5.36 0 -9.76 3.92 -9.76 11.4 c0 8.32 5.72 15.04 12.8 15.04 c3 0 6.48 -1.24 8.2 -3.36 z M111.24 40 l0.24 -2.76 l0 -9.52 c0 -4.56 -2.24 -5.64 -4.32 -5.64 c-2.56 0 -4.48 1.56 -6.52 2.92 l0 11.12 c0 2.16 0.28 3.28 2.28 3.72 l0 0.16 l-6.32 0 l0.36 -2.48 l0 -23.88 c0 -1.6 -0.76 -1.4 -3.24 -0.64 l0 -0.24 l7.12 -3.36 l-0.2 1.56 l0 13.16 c2.16 -1.44 5.24 -3.76 8.8 -3.76 c2.6 0 5.72 1.24 5.72 7.28 l0 8.64 c0 2.16 0.36 2.92 1.56 3.72 l-5.48 0 z M138 36 l0.2 0.16 c-1.2 2.24 -4.44 4.12 -8.56 4.12 c-5.56 0 -10.12 -3.48 -10.12 -9.52 c0 -6.44 5.28 -10.4 11.08 -10.4 c8.32 0 9.24 8.52 4.24 8.52 l-11.44 0 c0.04 5.48 3.16 9.64 7.96 9.64 c2.12 0 5.4 -0.8 6.64 -2.52 z M129.16 21.08 c-3.24 0 -5.56 2.64 -5.76 7.16 l9.84 -0.12 c2.44 -0.04 1.12 -7.04 -4.08 -7.04 z M148.48 40.28 c-3.16 0 -6 -1.04 -7.68 -2.36 l2.24 -3.72 l0.08 0 c-0.04 3.48 3.76 5.48 6.88 5.48 c2.76 0 3.68 -1.56 3.68 -3.44 c0 -2.64 -1.88 -3.68 -5 -4.16 c-6.16 -0.96 -7.4 -3.92 -7.4 -6.08 c0 -3.56 3.36 -5.64 7.6 -5.64 c2.96 0 5.72 1 7.28 2.28 l-2.52 3.76 l-0.08 0 c0.16 -3.48 -3.4 -5.44 -6.12 -5.44 c-2.64 0 -3.36 1.8 -3.36 3.32 c0 2.84 2.76 3.64 5.28 4.04 c6.04 0.96 7.12 3.68 7.12 5.8 c0 3.56 -3.04 6.16 -8 6.16 z M166.95999999999998 40.28 c-3.16 0 -6 -1.04 -7.68 -2.36 l2.24 -3.72 l0.08 0 c-0.04 3.48 3.76 5.48 6.88 5.48 c2.76 0 3.68 -1.56 3.68 -3.44 c0 -2.64 -1.88 -3.68 -5 -4.16 c-6.16 -0.96 -7.4 -3.92 -7.4 -6.08 c0 -3.56 3.36 -5.64 7.6 -5.64 c2.96 0 5.72 1 7.28 2.28 l-2.52 3.76 l-0.08 0 c0.16 -3.48 -3.4 -5.44 -6.12 -5.44 c-2.64 0 -3.36 1.8 -3.36 3.32 c0 2.84 2.76 3.64 5.28 4.04 c6.04 0.96 7.12 3.68 7.12 5.8 c0 3.56 -3.04 6.16 -8 6.16 z M206.59999999999997 34.72 c2.36 3.24 3.88 4.12 5.96 5.16 l0 0.12 l-7.24 0 l0 -0.68 l-7.8 -10.8 l-0.36 0 l-5.08 0 l0 9.2 c0 1.44 1.4 1.88 3.04 2.08 l0 0.2 l-10.16 0 l0 -0.2 c1.64 -0.2 3.04 -0.64 3.04 -2.08 l0 -23.44 c0 -1.44 -1.4 -1.88 -3.04 -2.08 l0 -0.2 l14.04 0 c6.44 0 10.56 2.44 10.56 7.36 c0 4.16 -3 7.44 -7.92 8.64 z M192.07999999999996 26.92 c2.12 0.6 4.12 0.88 6.28 0.88 c4.96 0 7.2 -1.4 7.2 -6.96 c0 -4 -1.2 -8.12 -8.72 -8.12 l-4.76 0 l0 14.2 z M232.23999999999995 36 l0.2 0.16 c-1.2 2.24 -4.44 4.12 -8.56 4.12 c-5.56 0 -10.12 -3.48 -10.12 -9.52 c0 -6.44 5.28 -10.4 11.08 -10.4 c8.32 0 9.24 8.52 4.24 8.52 l-11.44 0 c0.04 5.48 3.16 9.64 7.96 9.64 c2.12 0 5.4 -0.8 6.64 -2.52 z M223.39999999999998 21.08 c-3.24 0 -5.56 2.64 -5.76 7.16 l9.84 -0.12 c2.44 -0.04 1.12 -7.04 -4.08 -7.04 z M245.07999999999996 20.36 c7.24 0 10.72 4.08 10.72 9.56 c0 6 -4.2 10.36 -11.08 10.36 c-1.76 0 -3.16 -0.32 -4.36 -0.68 l0 5.2 c0 2.16 0.36 2.92 2.16 3.72 l0 0.12 l-7.64 -1.32 l0 -0.12 c1.4 -0.36 1.8 -1.04 1.8 -3.04 l0 -21.32 c-0.56 -0.36 -1.6 -0.64 -2.64 -0.72 l0 -0.16 c4.24 -1.2 8.72 -1.6 11.04 -1.6 z M246.19999999999996 39.56 c3.16 0 5.68 -2 5.68 -7.64 c0 -6.28 -3.08 -11 -7.88 -11 c-1.32 0 -2.76 0.36 -3.64 0.76 l0 15.72 c1.68 1.2 3.68 2.16 5.84 2.16 z M277.47999999999996 36 l0.2 0.16 c-1.2 2.24 -4.44 4.12 -8.56 4.12 c-5.56 0 -10.12 -3.48 -10.12 -9.52 c0 -6.44 5.28 -10.4 11.08 -10.4 c8.32 0 9.24 8.52 4.24 8.52 l-11.44 0 c0.04 5.48 3.16 9.64 7.96 9.64 c2.12 0 5.4 -0.8 6.64 -2.52 z M268.64 21.08 c-3.24 0 -5.56 2.64 -5.76 7.16 l9.84 -0.12 c2.44 -0.04 1.12 -7.04 -4.08 -7.04 z M291.76 20.4 c0.72 0 1.36 0.12 2.12 0.48 l-3.44 5.6 l-0.16 0 c1.08 -2.68 0.12 -3.84 -1.16 -3.84 c-2.04 0 -3.32 2.56 -3.72 5.36 l0 8.28 c0 2.16 0.36 2.92 1.56 3.72 l-5.44 0 l0.2 -2.76 l0 -15.36 c-0.56 -0.36 -1.6 -0.64 -2.44 -0.72 l0 -0.16 l6.32 -0.6 l-0.2 2.96 l0 1.28 l0.52 0 c0.92 -2.56 3.16 -4.24 5.84 -4.24 z M300.48 40.64 l-2.96 -1 l0.12 -2.4 l0 -19.04 c0 -1.68 -0.76 -1.52 -3.36 -0.76 l0 -0.24 l7.36 -3.4 l-0.32 1.64 l0 5.16 l4.84 0 l-0.2 0.96 l-4.64 0 l0 17.72 l4.84 -0.16 l0 0.16 l-4.84 1.36 l-0.84 0 z M319.12 20.36 c6.08 0 10.36 4.04 10.36 9.96 c0 5.88 -4.28 9.96 -10.36 9.96 s-10.36 -4.04 -10.36 -9.96 c0 -5.88 4.28 -9.96 10.36 -9.96 z M320.68 39.6 c3.16 0 5.04 -2.52 5.04 -6.68 c0 -5.52 -3.2 -11.88 -8.16 -11.88 c-3.16 0 -5.04 2.52 -5.04 6.68 c0 5.52 3.2 11.88 8.16 11.88 z M335.52000000000004 16.24 c-1.32 0 -2.32 -1 -2.32 -2.32 c0 -1.28 1 -2.28 2.32 -2.28 c1.28 0 2.28 1 2.28 2.28 c0 1.32 -1 2.32 -2.28 2.32 z M333.68000000000006 40 l0.24 -2.76 l0 -15.36 c-0.56 -0.36 -1.6 -0.64 -2.44 -0.72 l0 -0.16 l6.32 -0.6 l-0.2 2.96 l0 12.92 c0 2.16 0.36 2.92 1.56 3.72 l-5.48 0 z M353.24 20.4 c0.72 0 1.36 0.12 2.12 0.48 l-3.44 5.6 l-0.16 0 c1.08 -2.68 0.12 -3.84 -1.16 -3.84 c-2.04 0 -3.32 2.56 -3.72 5.36 l0 8.28 c0 2.16 0.36 2.92 1.56 3.72 l-5.44 0 l0.2 -2.76 l0 -15.36 c-0.56 -0.36 -1.6 -0.64 -2.44 -0.72 l0 -0.16 l6.32 -0.6 l-0.2 2.96 l0 1.28 l0.52 0 c0.92 -2.56 3.16 -4.24 5.84 -4.24 z M376.04 36 l0.2 0.16 c-1.2 2.24 -4.44 4.12 -8.56 4.12 c-5.56 0 -10.12 -3.48 -10.12 -9.52 c0 -6.44 5.28 -10.4 11.08 -10.4 c8.32 0 9.24 8.52 4.24 8.52 l-11.44 0 c0.04 5.48 3.16 9.64 7.96 9.64 c2.12 0 5.4 -0.8 6.64 -2.52 z M367.20000000000005 21.08 c-3.24 0 -5.56 2.64 -5.76 7.16 l9.84 -0.12 c2.44 -0.04 1.12 -7.04 -4.08 -7.04 z"></path></g></svg>